<svg width="20" height="17" viewBox="0 0 20 17" fill="none" xmlns="http://www.w3.org/2000/svg">
<path d="M10 1.35399V8.00499L17.442 8.00399L15.72 6.27999C15.593 6.153 15.5158 5.98465 15.5024 5.80554C15.489 5.62643 15.5403 5.44846 15.647 5.30399L15.72 5.21999C15.847 5.09298 16.0153 5.01575 16.1945 5.00235C16.3736 4.98895 16.5515 5.04028 16.696 5.14699L16.78 5.21999L19.777 8.21699C19.904 8.34398 19.9812 8.51234 19.9946 8.69144C20.008 8.87055 19.9567 9.04852 19.85 9.19299L19.777 9.27699L16.781 12.281C16.6472 12.4143 16.468 12.4922 16.2792 12.4991C16.0904 12.506 15.906 12.4414 15.7628 12.3183C15.6196 12.1951 15.5281 12.0225 15.5066 11.8348C15.4852 11.6472 15.5353 11.4583 15.647 11.306L15.719 11.221L17.432 9.50399L10.001 9.50499L10 16.25C10.0001 16.3595 9.97611 16.4677 9.92987 16.567C9.88362 16.6663 9.81619 16.7543 9.73232 16.8247C9.64844 16.8951 9.55016 16.9463 9.44437 16.9747C9.33859 17.0031 9.22787 17.008 9.12 16.989L0.62 15.487C0.44658 15.4565 0.289428 15.3659 0.176073 15.2312C0.0627173 15.0964 0.000386855 14.9261 0 14.75V2.74999C2.56231e-06 2.57223 0.0631438 2.40025 0.178164 2.26472C0.293185 2.12918 0.452606 2.03891 0.628 2.00999L9.128 0.613993C9.23536 0.596293 9.34529 0.602166 9.45016 0.631206C9.55502 0.660245 9.65231 0.711755 9.73528 0.782161C9.81824 0.852567 9.8849 0.940183 9.93061 1.03893C9.97632 1.13767 10 1.24518 10 1.35399ZM6.502 8.49999C6.23625 8.49999 5.98139 8.60556 5.79348 8.79347C5.60557 8.98138 5.5 9.23625 5.5 9.50199C5.5 9.76774 5.60557 10.0226 5.79348 10.2105C5.98139 10.3984 6.23625 10.504 6.502 10.504C6.76775 10.504 7.02261 10.3984 7.21052 10.2105C7.39843 10.0226 7.504 9.76774 7.504 9.50199C7.504 9.23625 7.39843 8.98138 7.21052 8.79347C7.02261 8.60556 6.76775 8.49999 6.502 8.49999Z" fill="#C4C4C4"/>
</svg>
